<?xml version="1.0" standalone="no"?>
<!DOCTYPE svg PUBLIC "-//W3C//DTD SVG 20010904//EN"
 "http://www.w3.org/TR/2001/REC-SVG-20010904/DTD/svg10.dtd">
<svg version="1.0" xmlns="http://www.w3.org/2000/svg"
 width="713.000000pt" height="713.000000pt" viewBox="0 0 713.000000 713.000000"
 preserveAspectRatio="xMidYMid meet">
<metadata>
Created by potrace 1.11, written by Peter Selinger 2001-2013
</metadata>
<g transform="translate(0.000000,713.000000) scale(0.100000,-0.100000)"
fill="#000000" stroke="none">
<path d="M3320 6293 c-8 -4 -301 -171 -650 -373 -349 -202 -860 -496 -1135
-654 -275 -159 -517 -299 -538 -312 l-37 -24 2 -1376 3 -1375 225 -131 c124
-72 560 -324 970 -561 410 -236 836 -483 947 -548 120 -70 213 -119 229 -119
26 0 200 98 1099 620 253 147 631 365 840 485 209 120 392 227 408 237 l27 19
0 449 0 448 63 11 c34 6 130 23 212 37 83 14 157 32 165 40 9 7 24 37 34 66
11 29 41 108 67 176 27 67 49 133 49 145 0 14 -18 40 -46 67 -25 25 -108 113
-184 195 -150 164 -193 195 -297 215 l-63 13 0 65 0 65 53 -7 c28 -3 79 -9
112 -12 l60 -5 325 338 c179 185 365 379 414 429 49 50 93 98 97 107 10 17
-37 314 -53 334 -5 6 -26 14 -46 17 -20 3 -149 24 -287 47 -306 50 -371 50
-437 2 -24 -18 -144 -102 -267 -188 l-223 -155 -67 38 c-36 21 -295 171 -576
334 -433 251 -805 465 -1359 785 -61 35 -112 63 -115 62 -4 0 -13 -3 -21 -6z
m420 -866 c212 -122 457 -265 546 -317 l161 -95 -24 -18 c-13 -10 -28 -38 -34
-63 -13 -49 -14 -50 -56 -29 -78 39 -172 28 -247 -30 l-46 -35 -14 23 c-8 12
-18 40 -22 62 -10 59 -31 94 -70 117 -19 11 -34 28 -34 37 0 41 -61 57 -80 20
-15 -27 13 -73 40 -66 20 5 77 -26 96 -52 7 -8 15 -37 18 -63 4 -29 16 -59 32
-78 23 -27 25 -34 15 -62 -20 -57 -14 -135 15 -189 75 -137 266 -156 371 -35
62 70 69 168 19 266 -25 51 -26 58 -14 94 7 21 27 49 43 61 l30 23 105 -63
c58 -34 163 -96 233 -138 l128 -76 -79 -55 c-44 -31 -85 -63 -92 -71 -9 -11
-8 -40 10 -142 11 -71 24 -131 28 -135 4 -3 70 -16 147 -28 205 -32 185 -21
185 -97 l0 -65 -57 7 c-32 4 -107 15 -168 26 -85 14 -113 15 -121 6 -23 -24
-65 -148 -58 -170 3 -12 25 -42 49 -67 62 -66 334 -380 351 -405 12 -19 14
-100 12 -513 -3 -459 -4 -491 -21 -510 -18 -19 -345 -212 -360 -212 -4 0 -7
20 -7 45 0 43 -1 45 -27 44 -16 0 -68 -8 -118 -17 -64 -12 -91 -22 -93 -33 -1
-9 11 -44 27 -80 24 -50 28 -66 18 -76 -6 -6 -97 -61 -202 -121 -104 -60 -378
-218 -608 -351 -230 -132 -424 -241 -431 -241 -12 0 -1635 934 -1766 1017
l-45 28 -3 1046 -2 1045 22 21 c13 11 318 191 678 398 1003 579 1102 635 1119
635 9 0 190 -100 401 -223z"/>
<path d="M1966 4710 c-160 -93 -293 -175 -297 -182 -7 -13 42 -316 55 -336 3
-6 104 -61 224 -123 119 -62 355 -183 524 -270 189 -98 317 -159 335 -159 16
1 234 106 523 253 411 209 495 255 494 272 -4 73 -40 241 -55 256 -20 20 -28
22 -867 278 -326 100 -605 181 -620 180 -16 0 -143 -68 -316 -169z"/>
<path d="M4440 4526 c-48 -50 -87 -67 -193 -86 -84 -15 -123 -8 -178 32 l-43
31 -42 -23 c-82 -43 -86 -58 -64 -221 15 -107 40 -154 143 -262 71 -74 88 -87
108 -82 13 3 107 18 208 34 103 17 189 36 196 43 7 7 36 71 64 142 l52 128
-16 97 c-9 53 -18 110 -21 127 -7 50 -45 77 -112 82 -57 4 -57 3 -102 -42z"/>
<path d="M3351 3751 c-446 -247 -486 -271 -504 -306 -10 -21 -64 -137 -119
-258 -71 -157 -97 -225 -91 -237 13 -29 247 -288 264 -295 24 -8 610 92 625
107 23 23 464 1058 464 1089 0 17 -5 40 -11 52 -20 40 -103 117 -124 116 -11
0 -238 -121 -504 -268z"/>
<path d="M4348 3855 c-137 -23 -251 -44 -254 -47 -11 -11 -146 -460 -140 -466
3 -3 224 30 491 74 391 64 485 82 485 94 0 8 -61 99 -136 203 -129 178 -137
187 -167 186 -18 -1 -143 -21 -279 -44z"/>
<path d="M4467 3295 c-274 -46 -504 -86 -512 -89 -9 -3 -15 -19 -15 -38 0 -97
54 -162 133 -160 75 2 847 132 879 148 45 23 70 86 59 153 -7 46 -23 73 -41
70 -3 -1 -229 -39 -503 -84z"/>
<path d="M4490 2946 l-365 -62 1 -44 c1 -78 13 -120 37 -131 17 -8 111 5 387
51 201 34 373 66 384 72 17 9 18 18 12 86 -4 42 -9 79 -12 84 -9 15 -76 6
-444 -56z"/>
<path d="M4561 2640 c-174 -30 -288 -54 -293 -62 -11 -17 -1 -87 18 -115 8
-13 28 -30 46 -39 29 -15 43 -14 266 22 228 36 237 38 271 69 29 27 34 38 33
71 -3 63 -16 99 -38 101 -10 1 -147 -21 -303 -47z"/>
</g>
</svg>
