<?xml version="1.0" encoding="UTF-8" standalone="no"?>
<!-- Generator: Adobe Illustrator 14.0.0, SVG Export Plug-In . SVG Version: 6.00 Build 43363)  -->

<svg
   xmlns:dc="http://purl.org/dc/elements/1.1/"
   xmlns:cc="http://creativecommons.org/ns#"
   xmlns:rdf="http://www.w3.org/1999/02/22-rdf-syntax-ns#"
   xmlns:svg="http://www.w3.org/2000/svg"
   xmlns="http://www.w3.org/2000/svg"
   xmlns:xlink="http://www.w3.org/1999/xlink"
   xmlns:sodipodi="http://sodipodi.sourceforge.net/DTD/sodipodi-0.dtd"
   xmlns:inkscape="http://www.inkscape.org/namespaces/inkscape"
   version="1.1"
   id="Layer_1"
   x="0px"
   y="0px"
   width="400"
   height="400"
   viewBox="0 0 300 300"
   enable-background="new 0 0 300 300"
   xml:space="preserve"
   inkscape:version="0.91 r13725"
   sodipodi:docname="amex.svg"><metadata
     id="metadata3448"><rdf:RDF><cc:Work
         rdf:about=""><dc:format>image/svg+xml</dc:format><dc:type
           rdf:resource="http://purl.org/dc/dcmitype/StillImage" /><dc:title /></cc:Work></rdf:RDF></metadata><defs
     id="defs3446" /><sodipodi:namedview
     pagecolor="#ffffff"
     bordercolor="#666666"
     borderopacity="1"
     objecttolerance="10"
     gridtolerance="10"
     guidetolerance="10"
     inkscape:pageopacity="0"
     inkscape:pageshadow="2"
     inkscape:window-width="1600"
     inkscape:window-height="876"
     id="namedview3444"
     showgrid="false"
     inkscape:zoom="1.2316667"
     inkscape:cx="-11.163764"
     inkscape:cy="243.50084"
     inkscape:window-x="0"
     inkscape:window-y="24"
     inkscape:window-maximized="1"
     inkscape:current-layer="Layer_1" /><radialGradient
     id="SVGID_1_"
     cx="57.388199"
     cy="57.021"
     r="264.57971"
     gradientUnits="userSpaceOnUse"><stop
       offset="0"
       style="stop-color:#9DD5F6"
       id="stop3414" /><stop
       offset="0.0711"
       style="stop-color:#98D3F5"
       id="stop3416" /><stop
       offset="0.1575"
       style="stop-color:#89CEF3"
       id="stop3418" /><stop
       offset="0.2516"
       style="stop-color:#70C6EF"
       id="stop3420" /><stop
       offset="0.3514"
       style="stop-color:#4EBBEA"
       id="stop3422" /><stop
       offset="0.4546"
       style="stop-color:#23ADE3"
       id="stop3424" /><stop
       offset="0.5"
       style="stop-color:#0DA6E0"
       id="stop3426" /><stop
       offset="1"
       style="stop-color:#2E77BC"
       id="stop3428" /></radialGradient><path
     d="m 289.584,7.598 -281.945,0 0,282.966 281.945,0 0,-93.386 c 1.12,-1.619 1.673,-3.69 1.673,-6.222 0,-2.898 -0.553,-4.693 -1.673,-6.205"
     id="path3430"
     inkscape:connector-curvature="0"
     style="fill:url(#SVGID_1_)" /><g
     id="g3432"><defs
       id="defs3434"><path
         id="SVGID_2_"
         d="m 289.584,7.598 -281.945,0 0,282.966 281.945,0 0,-93.386 c 1.12,-1.619 1.673,-3.69 1.673,-6.222 0,-2.898 -0.553,-4.693 -1.673,-6.205"
         inkscape:connector-curvature="0" /></defs><clipPath
       id="SVGID_3_"><use
         xlink:href="#SVGID_2_"
         overflow="visible"
         id="use3438"
         style="overflow:visible"
         x="0"
         y="0"
         width="100%"
         height="100%" /></clipPath></g><path
     d="m 33.053,130.042 -5.424,-13.217 -5.393,13.217 m 130.307,-5.263 c -1.089,0.661 -2.377,0.683 -3.92,0.683 l -9.627,0 0,-7.364 9.758,0 c 1.381,0 2.822,0.062 3.758,0.598 1.028,0.483 1.664,1.511 1.664,2.931 0,1.449 -0.605,2.615 -1.633,3.152 z m 68.678,5.263 -5.484,-13.217 -5.454,13.217 10.938,0 z m -128.02,14.306 -8.124,0 -0.03,-25.966 -11.491,25.966 -6.958,0 -11.521,-25.989 0,25.989 -16.118,0 -3.045,-7.395 -16.5,0 -3.076,7.395 -8.607,0 14.191,-33.154 11.774,0 13.478,31.39 0,-31.39 12.934,0 10.371,22.491 9.527,-22.491 13.194,0 0,33.154 z m 32.379,0 -26.473,0 0,-33.154 26.473,0 0,6.904 -18.548,0 0,5.976 18.103,0 0,6.796 -18.103,0 0,6.621 18.548,0 0,6.857 z m 37.326,-24.225 c 0,5.286 -3.528,8.017 -5.584,8.837 1.734,0.66 3.215,1.826 3.92,2.792 1.119,1.649 1.312,3.122 1.312,6.083 l 0,6.513 -7.993,0 -0.03,-4.181 c 0,-1.995 0.191,-4.864 -1.251,-6.459 -1.158,-1.166 -2.923,-1.419 -5.776,-1.419 l -8.507,0 0,12.059 -7.924,0 0,-33.154 18.227,0 c 4.05,0 7.034,0.107 9.596,1.588 2.507,1.481 4.01,3.643 4.01,7.341 z m 12.682,24.225 -8.086,0 0,-33.154 8.086,0 0,33.154 z m 93.808,0 -11.23,0 -15.021,-24.884 0,24.884 -16.139,0 -3.084,-7.395 -16.462,0 -2.992,7.395 -9.273,0 c -3.852,0 -8.729,-0.852 -11.491,-3.667 -2.785,-2.815 -4.234,-6.628 -4.234,-12.657 0,-4.917 0.866,-9.412 4.272,-12.964 2.562,-2.646 6.574,-3.866 12.035,-3.866 l 7.672,0 0,7.104 -7.511,0 c -2.892,0 -4.525,0.43 -6.098,1.964 -1.351,1.396 -2.278,4.035 -2.278,7.51 0,3.552 0.706,6.113 2.179,7.786 1.22,1.312 3.437,1.71 5.523,1.71 l 3.559,0 11.169,-26.073 11.874,0 13.417,31.359 0,-31.359 12.066,0 13.93,23.09 0,-23.09 8.117,0 0,33.153 z m -261.757,6.512 13.54,0 3.053,-7.364 6.835,0 3.045,7.364 26.641,0 0,-5.63 2.378,5.654 13.83,0 2.378,-5.738 0,5.714 66.208,0 -0.031,-12.088 1.281,0 c 0.897,0.031 1.159,0.114 1.159,1.595 l 0,10.493 34.243,0 0,-2.814 c 2.762,1.48 7.058,2.814 12.711,2.814 l 14.406,0 3.083,-7.364 6.835,0 3.015,7.364 27.761,0 0,-6.995 4.204,6.995 22.246,0 0,-46.24 -22.016,0 0,5.461 -3.083,-5.461 -22.591,0 0,5.461 -2.831,-5.461 -30.515,0 c -5.108,0 -9.598,0.713 -13.225,2.7 l 0,-2.7 -21.058,0 0,2.7 c -2.308,-2.048 -5.453,-2.7 -8.95,-2.7 l -76.933,0 -5.162,11.943 -5.301,-11.943 -24.232,0 0,5.461 -2.662,-5.461 -20.666,0 -9.597,21.985 0,24.255 z"
     id="path3440"
     inkscape:connector-curvature="0"
     style="fill:#ffffff" /><path
     d="m 289.584,175.315 -14.443,0 c -1.442,0 -2.4,0.054 -3.207,0.599 -0.836,0.537 -1.158,1.334 -1.158,2.386 0,1.251 0.706,2.102 1.733,2.47 0.836,0.291 1.734,0.376 3.054,0.376 l 4.295,0.115 c 4.334,0.107 7.227,0.852 8.991,2.669 0.321,0.253 0.514,0.537 0.735,0.821 m 0,12.427 c -1.925,2.815 -5.676,4.242 -10.754,4.242 l -15.304,0 0,-7.111 15.242,0 c 1.512,0 2.57,-0.199 3.207,-0.821 0.552,-0.513 0.937,-1.258 0.937,-2.163 0,-0.966 -0.385,-1.733 -0.968,-2.193 -0.575,-0.506 -1.412,-0.736 -2.792,-0.736 -7.441,-0.253 -16.724,0.23 -16.724,-10.264 0,-4.81 3.054,-9.873 11.37,-9.873 l 15.785,0 0,-6.598 -14.666,0 c -4.426,0 -7.641,1.06 -9.918,2.708 l 0,-2.708 -21.693,0 c -3.469,0 -7.541,0.86 -9.467,2.708 l 0,-2.708 -38.738,0 0,2.708 c -3.083,-2.224 -8.285,-2.708 -10.686,-2.708 l -25.552,0 0,2.708 c -2.439,-2.362 -7.863,-2.708 -11.169,-2.708 l -28.597,0 -6.544,7.082 -6.129,-7.082 -42.718,0 0,46.272 41.914,0 6.743,-7.194 6.352,7.194 25.836,0.023 0,-10.885 2.54,0 c 3.428,0.053 7.471,-0.085 11.038,-1.627 l 0,12.488 21.31,0 0,-12.06 1.028,0 c 1.312,0 1.441,0.054 1.441,1.365 l 0,10.694 64.736,0 c 4.11,0 8.406,-1.052 10.785,-2.961 l 0,2.961 20.534,0 c 4.273,0 8.446,-0.599 11.621,-2.133 l 0,-8.62 z M 257.973,183.93 c 1.543,1.597 2.37,3.613 2.37,7.026 0,7.134 -4.457,10.464 -12.449,10.464 l -15.435,0 0,-7.111 15.373,0 c 1.503,0 2.569,-0.199 3.237,-0.821 0.545,-0.513 0.936,-1.258 0.936,-2.163 0,-0.966 -0.423,-1.733 -0.967,-2.193 -0.606,-0.506 -1.442,-0.736 -2.822,-0.736 -7.411,-0.253 -16.692,0.23 -16.692,-10.264 0,-4.81 3.022,-9.873 11.33,-9.873 l 15.887,0 0,7.058 -14.537,0 c -1.441,0 -2.378,0.054 -3.175,0.599 -0.868,0.537 -1.19,1.334 -1.19,2.386 0,1.251 0.737,2.102 1.734,2.47 0.836,0.291 1.734,0.376 3.084,0.376 l 4.266,0.115 c 4.302,0.105 7.255,0.849 9.05,2.667 z m -71.508,-2.048 c -1.06,0.629 -2.371,0.683 -3.913,0.683 l -9.627,0 0,-7.448 9.758,0 c 1.411,0 2.823,0.03 3.782,0.599 1.027,0.537 1.641,1.564 1.641,2.983 0,1.419 -0.614,2.562 -1.641,3.183 z m 4.786,4.127 c 1.764,0.651 3.206,1.818 3.882,2.784 1.119,1.619 1.281,3.13 1.313,6.053 l 0,6.574 -7.956,0 0,-4.149 c 0,-1.995 0.192,-4.949 -1.281,-6.491 -1.158,-1.188 -2.923,-1.472 -5.814,-1.472 l -8.469,0 0,12.112 -7.963,0 0,-33.162 18.296,0 c 4.012,0 6.934,0.177 9.535,1.565 2.501,1.511 4.074,3.581 4.074,7.364 -0.001,5.293 -3.531,7.994 -5.617,8.822 z m 10.011,-17.751 26.449,0 0,6.858 -18.557,0 0,6.029 18.104,0 0,6.766 -18.104,0 0,6.598 18.557,0.03 0,6.881 -26.449,0 0,-33.162 z m -53.467,15.304 -10.241,0 0,-8.445 10.333,0 c 2.861,0 4.847,1.166 4.847,4.066 0,2.868 -1.894,4.379 -4.939,4.379 z m -18.134,14.842 -12.167,-13.508 12.167,-13.079 0,26.587 z m -31.421,-3.895 -19.484,0 0,-6.598 17.398,0 0,-6.766 -17.398,0 0,-6.029 19.868,0 8.668,9.664 -9.052,9.729 z m 63.002,-15.326 c 0,9.212 -6.873,11.114 -13.8,11.114 l -9.888,0 0,11.123 -15.403,0 -9.758,-10.978 -10.141,10.978 -31.39,0 0,-33.162 31.873,0 9.75,10.87 10.08,-10.87 25.322,0 c 6.289,0 13.355,1.741 13.355,10.925 z"
     id="path3442"
     inkscape:connector-curvature="0"
     style="fill:#ffffff" /></svg>